<svg width="66" height="66" viewBox="0 0 66 66" fill="none" xmlns="http://www.w3.org/2000/svg">
<rect width="66" height="66" rx="8" fill="#CBEA7B"/>
<path d="M38.3792 41.5786L28.1558 24.1776C27.7275 23.4467 27.1277 23.2312 26.4423 23.2968C25.8807 23.3624 25.1383 23.6529 24.4529 24.0464C22.0732 25.4051 21.1689 27.4948 18.8558 28.8066C17.8467 29.3782 16.971 29.5937 16.5522 29.828C16.0572 30.1091 15.8382 30.5776 16.1333 31.093L19.96 37.6243C20.3883 38.3552 20.9975 38.5613 21.6734 38.4957C22.235 38.4301 22.987 38.1396 23.6628 37.7367C26.0521 36.378 26.9468 34.2977 29.26 32.9765C30.031 32.5454 30.7354 32.3112 31.1828 32.1425L37.1322 42.2907C37.3321 42.6375 37.7604 42.7499 38.1126 42.5532C38.4458 42.3564 38.5695 41.916 38.3792 41.5786ZM33.6578 31.3086L34.4859 32.7141L34.819 32.1425C35.2664 32.3112 35.9613 32.5454 36.7419 32.9765C39.0455 34.2977 39.9498 36.378 42.3295 37.7367C43.0149 38.1396 43.7574 38.4301 44.319 38.4957C45.0044 38.5613 45.6041 38.3552 46.0324 37.6243L49.8686 31.093C50.1637 30.5776 49.9352 30.1091 49.4498 29.828C49.0309 29.5937 48.1456 29.3782 47.1366 28.8066C44.8235 27.4948 43.9287 25.4051 41.549 24.0464C40.8637 23.6529 40.1116 23.3624 39.5595 23.2968C38.8741 23.2312 38.2745 23.4467 37.8461 24.1776L33.6578 31.3086ZM32.3442 36.3686L31.5064 34.9536L27.6228 41.5786C27.4228 41.916 27.5561 42.3564 27.8893 42.5532C28.2415 42.7499 28.6698 42.6375 28.8602 42.2907L32.3442 36.3686Z" fill="#262626"/>
</svg>
